<svg xmlns="http://www.w3.org/2000/svg" xmlns:xlink="http://www.w3.org/1999/xlink" width="502.937" height="540.515" viewBox="0 0 502.937 540.515"><defs><style>.a{fill:url(#a);}.b{fill:url(#b);}.c{fill:url(#c);}.d{fill:#d6e3fa;}.e{fill:url(#d);}.f{fill:url(#e);}.g{fill:url(#f);}.h{fill:url(#g);}.i{fill:url(#h);}.j{fill:url(#i);}.k{fill:url(#k);}.l{fill:url(#l);}.ab,.ah,.ai,.ao,.az,.bm,.m,.u,.y,.z{opacity:0.5;}.m{fill:url(#m);}.ac,.am,.bc,.bd,.n,.r,.w{fill:none;}.bc,.n{stroke:#707070;}.am,.bc,.bd,.n,.r,.w{stroke-linecap:round;}.am,.az,.bc,.bd,.n,.r,.w{stroke-miterlimit:10;}.n,.r{stroke-width:11px;}.o{fill:url(#n);}.p{fill:url(#ag);}.q{fill:#fff;}.r{stroke:#1b2b4f;}.s{fill:url(#ah);}.t{clip-path:url(#aj);}.ad,.u{fill:#3d82f0;}.v{fill:url(#ak);}.w{stroke:#fff;}.am,.w{stroke-width:2px;}.x{clip-path:url(#an);}.ak,.y{fill:#a1b8e3;}.z{fill:url(#ao);}.aa{clip-path:url(#aq);}.ad,.az{mix-blend-mode:multiply;isolation:isolate;}.ae{fill:url(#ar);}.af{fill:url(#as);}.ag{clip-path:url(#at);}.ah{fill:url(#au);}.ai{fill:url(#av);}.aj{fill:#e1ecff;}.al{clip-path:url(#ax);}.am,.bd{stroke:#223762;}.an{fill:url(#ay);}.ao{fill:url(#az);}.ap{fill:#f05971;}.aq{fill:url(#bk);}.ar{clip-path:url(#bm);}.as{opacity:0.219;fill:url(#bn);}.at{fill:url(#bo);}.au{fill:url(#bp);}.av{opacity:0.7;fill:url(#bq);}.aw{clip-path:url(#bs);}.ax{clip-path:url(#bu);}.ay{clip-path:url(#bw);}.az{fill:rgba(0,0,0,0);stroke:#489c71;stroke-width:3px;}.ba{clip-path:url(#by);}.bb{clip-path:url(#ca);}.bc,.bd{stroke-width:12px;}.be{clip-path:url(#cc);}.bf{fill:url(#cd);}.bg{fill:#223762;}.bh{fill:#192a4d;}.bi{fill:url(#ce);}.bj{fill:url(#cf);}.bk{fill:url(#cg);}.bl,.bm{fill:#ffb417;}.bn{clip-path:url(#ci);}.bo{fill:url(#cj);}.bp{fill:url(#ck);}.bq{filter:url(#ae);}.br{filter:url(#ab);}.bs{filter:url(#y);}.bt{filter:url(#v);}.bu{filter:url(#s);}.bv{filter:url(#p);}</style><linearGradient id="a" x1="0.5" y1="1.204" x2="0.734" y2="0.612" gradientUnits="objectBoundingBox"><stop offset="0" stop-color="#70b8f9"/><stop offset="1" stop-color="#3d82f0"/></linearGradient><linearGradient id="b" y1="1.068" x2="0.286" gradientUnits="objectBoundingBox"><stop offset="0" stop-color="#cfddf3"/><stop offset="1" stop-color="#a1b8e3"/></linearGradient><linearGradient id="c" x1="1.188" y1="0" x2="0.685" y2="0.5" xlink:href="#a"/><linearGradient id="d" y1="1.668" x2="0.5" y2="0.204" xlink:href="#a"/><linearGradient id="e" x1="0.803" y1="0.168" x2="0.08" y2="1" gradientUnits="objectBoundingBox"><stop offset="0" stop-color="#edf3fd"/><stop offset="1" stop-color="#d0daea"/></linearGradient><linearGradient id="f" x1="1" y1="1" x2="0.232" y2="0.678" gradientUnits="objectBoundingBox"><stop offset="0" stop-color="#acc5e9"/><stop offset="0.627" stop-color="#d3e3fb"/><stop offset="1" stop-color="#eaf2ff"/></linearGradient><linearGradient id="g" x1="0.776" x2="0.403" y2="1.463" gradientUnits="objectBoundingBox"><stop offset="0" stop-color="#86a8d9"/><stop offset="1" stop-color="#bcd0f2"/></linearGradient><linearGradient id="h" x1="0.342" y1="0.05" x2="0.786" y2="1" gradientUnits="objectBoundingBox"><stop offset="0" stop-color="#b1ffbe"/><stop offset="0.444" stop-color="#5cdb8e"/><stop offset="1" stop-color="#149654"/></linearGradient><linearGradient id="i" x1="0.786" y1="-0.093" x2="0.904" y2="0.888" xlink:href="#h"/><linearGradient id="k" x1="0.5" y1="0.627" x2="0" y2="0.184" gradientUnits="objectBoundingBox"><stop offset="0" stop-color="#004ec0"/><stop offset="1" stop-color="#3d82f0"/></linearGradient><linearGradient id="l" x1="0.398" y1="1" x2="0.43" gradientUnits="objectBoundingBox"><stop offset="0" stop-color="#edf3fd"/><stop offset="1" stop-color="#d6e3fa"/></linearGradient><linearGradient id="m" x1="0.5" x2="0.348" y2="0.591" gradientUnits="objectBoundingBox"><stop offset="0" stop-color="#d0dcf1"/><stop offset="1" stop-color="#fff"/></linearGradient><linearGradient id="n" x1="0.69" y1="1.51" x2="0.518" y2="1.473" gradientUnits="objectBoundingBox"><stop offset="0" stop-color="#283f6c"/><stop offset="0.519" stop-color="#314a7b"/><stop offset="1" stop-color="#223762"/></linearGradient><filter id="p" x="169.869" y="207.737" width="333.068" height="110.279" filterUnits="userSpaceOnUse"><feOffset dy="10" input="SourceAlpha"/><feGaussianBlur result="q"/><feFlood flood-color="#1d325d" flood-opacity="0.514"/><feComposite operator="in" in2="q"/><feComposite in="SourceGraphic"/></filter><filter id="s" x="169.869" y="183.055" width="333.068" height="110.279" filterUnits="userSpaceOnUse"><feOffset dy="10" input="SourceAlpha"/><feGaussianBlur result="t"/><feFlood flood-color="#1d325d" flood-opacity="0.514"/><feComposite operator="in" in2="t"/><feComposite in="SourceGraphic"/></filter><filter id="v" x="169.869" y="156.922" width="333.068" height="110.279" filterUnits="userSpaceOnUse"><feOffset dy="10" input="SourceAlpha"/><feGaussianBlur result="w"/><feFlood flood-color="#1d325d" flood-opacity="0.514"/><feComposite operator="in" in2="w"/><feComposite in="SourceGraphic"/></filter><filter id="y" x="169.869" y="131.756" width="333.068" height="110.279" filterUnits="userSpaceOnUse"><feOffset dy="10" input="SourceAlpha"/><feGaussianBlur result="z"/><feFlood flood-color="#1d325d" flood-opacity="0.514"/><feComposite operator="in" in2="z"/><feComposite in="SourceGraphic"/></filter><filter id="ab" x="169.869" y="107.074" width="333.068" height="110.279" filterUnits="userSpaceOnUse"><feOffset dy="10" input="SourceAlpha"/><feGaussianBlur result="ac"/><feFlood flood-color="#1d325d" flood-opacity="0.514"/><feComposite operator="in" in2="ac"/><feComposite in="SourceGraphic"/></filter><filter id="ae" x="169.775" y="81.755" width="333.068" height="110.279" filterUnits="userSpaceOnUse"><feOffset dy="10" input="SourceAlpha"/><feGaussianBlur result="af"/><feFlood flood-color="#1d325d" flood-opacity="0.514"/><feComposite operator="in" in2="af"/><feComposite in="SourceGraphic"/></filter><linearGradient id="ag" x1="0.381" y1="1" x2="0.634" gradientUnits="objectBoundingBox"><stop offset="0" stop-color="#142547"/><stop offset="1" stop-color="#223762"/></linearGradient><linearGradient id="ah" x1="1.327" y1="0.5" x2="0.5" y2="1" gradientUnits="objectBoundingBox"><stop offset="0" stop-color="#ff6b67"/><stop offset="1" stop-color="#f05971"/></linearGradient><clipPath id="aj"><path class="a" d="M1.478,3.328c0,4.9-4.035,14.5,1.227,16.986S12.619,9.877,12.619,9.877,12.218.386,7.461.386,1.478-1.57,1.478,3.328Z" transform="translate(0 0)"/></clipPath><linearGradient id="ak" x1="-0.258" y1="1" x2="0.424" y2="0.304" gradientUnits="objectBoundingBox"><stop offset="0" stop-color="#47689b"/><stop offset="1" stop-color="#223762"/></linearGradient><clipPath id="an"><path class="b" d="M38.97,0S49.3,37.861,50.649,46.476s4.638,37.735,4.173,42.431c-2.249,2.293-6.3.92-7.006.5S42.763,65.027,38.97,55.733s-12.328-17.848-17.952-27.2c0,6.086-4.343,22.374-4.343,22.374S10.342,79.671,8.187,84.327C7.164,85.979,2,84.768,0,84.327c0-4.363,4.317-26.4,4.317-34.054s-1.194-21.518-1.64-27.2S1.141,6.358,2.677,0Z"/></clipPath><linearGradient id="ao" x1="0.893" y1="0.832" x2="0.799" y2="0.257" gradientUnits="objectBoundingBox"><stop offset="0" stop-color="#cfddf3" stop-opacity="0.478"/><stop offset="1" stop-color="#a1b8e3"/></linearGradient><clipPath id="aq"><path class="c" d="M12.782,0a9.778,9.778,0,0,0,3.761,3.853C18.908,5,20.09,5.563,20.09,5.563l-1.005,3.9s1.874,5.735,1.005,7.668-3.547,3.218-5.106,4.942-3,7.572-3,7.572H1.71l-.465-7.572S-1.5,11.147,3.153,5.563,12.782,0,12.782,0Z" transform="translate(-0.442 0)"/></clipPath><linearGradient id="ar" x1="0.5" x2="0.814" y2="0.564" gradientUnits="objectBoundingBox"><stop offset="0" stop-color="#164898"/><stop offset="1" stop-color="#223762"/></linearGradient><linearGradient id="as" x1="0" y1="0.5" x2="0.755" y2="0.335" xlink:href="#l"/><clipPath id="at"><path class="d" d="M22.8.274s7.3,1.927,11.608,7.021,3.345,20.416,4.564,29.536,6.523,15.749-1.67,20.9-31.358,3.978-33.252,0S0,29.3,0,29.3s0-22,2.588-23.86S11.216,0,11.216,0s-.135.545,2.778,1.086S22.8.274,22.8.274Z"/></clipPath><linearGradient id="au" x1="0.447" y1="0.578" x2="0.674" y2="0.237" xlink:href="#b"/><linearGradient id="av" x1="0.862" y1="2.316" x2="0.57" y2="-0.571" xlink:href="#b"/><clipPath id="ax"><path class="e" d="M7.557,30.009l6.661,4.907S25.182,18.99,26.15,16.81s0-5.839,0-7.057.719-3.906,1.765-4.695,1.168-.383,1.8-.383C33,5.863,38.05.505,39.287.051s1.648,2.212,1.665,3.842a18.8,18.8,0,0,1-1.961,7.615c-1.254,2.149-5.421,5.572-5.421,6.521s-6.925,15.3-9.438,21.109-4.882,9.725-9.913,8.1S0,37.274,0,37.274s1.8-4.248,3.537-5.585A9.883,9.883,0,0,1,7.557,30.009Z" transform="matrix(0.978, 0.208, -0.208, 0.978, 9.898, 0)"/></clipPath><linearGradient id="ay" x1="0.221" y1="0.112" x2="0.221" y2="0.796" gradientUnits="objectBoundingBox"><stop offset="0" stop-color="#d6e3fa"/><stop offset="1" stop-color="#e3edfe"/></linearGradient><linearGradient id="az" x1="0.599" y1="-0.086" x2="0.5" y2="0.835" gradientUnits="objectBoundingBox"><stop offset="0" stop-color="#9cb4e0"/><stop offset="1" stop-color="#fff" stop-opacity="0"/></linearGradient><linearGradient id="bk" x1="0.073" y1="-0.113" x2="0.779" y2="0.854" gradientUnits="objectBoundingBox"><stop offset="0" stop-color="#85a6db"/><stop offset="1" stop-color="#c6d4ee"/></linearGradient><clipPath id="bm"><path class="f" d="M-72.246,0-140,14.644V77.433l66.48-19.318Z" transform="translate(140)"/></clipPath><linearGradient id="bn" x1="0.867" y1="0.5" x2="0.5" y2="1" gradientUnits="objectBoundingBox"><stop offset="0" stop-color="#b4c9e7"/><stop offset="1" stop-color="#becfec" stop-opacity="0.102"/></linearGradient><linearGradient id="bo" x1="0.5" y1="0" x2="0.5" y2="1" xlink:href="#l"/><linearGradient id="bp" x1="0.5" y1="-0.172" x2="0.172" y2="1.277" gradientUnits="objectBoundingBox"><stop offset="0" stop-color="#e5ecf8"/><stop offset="1" stop-color="#c6d4ee"/></linearGradient><linearGradient id="bq" x1="0.249" y1="1" x2="0.582" y2="-0.449" gradientUnits="objectBoundingBox"><stop offset="0" stop-color="#d9e5f6" stop-opacity="0"/><stop offset="1" stop-color="#b2c6ea"/></linearGradient><clipPath id="bs"><path class="g" d="M38.985,1.543A14.7,14.7,0,0,1,40.96,8.87c0,9.37-9.04,16.966-20.19,16.966S.579,18.24.579,8.87a14.756,14.756,0,0,1,2.2-7.712C11.725,2.574,29.528,2.483,38.985,1.543Z" transform="translate(-0.579 -1.158)"/></clipPath><clipPath id="bu"><path class="h" d="M19.527.579c10.144,0,18.368,1.946,18.368,4.347S29.671,9.273,19.527,9.273,1.159,7.327,1.159,4.926,9.382.579,19.527.579Z" transform="translate(-1.159 -0.579)"/></clipPath><clipPath id="bw"><path class="i" d="M18.246,51.9A58.766,58.766,0,0,0,6.188,24.135C1.3,17.775,1.285,2.287.579.579,4.414,1.9,11.3,5.3,18.246,14.881,25.525,24.928,20.907,45.417,18.246,51.9Z" transform="translate(-0.579 -0.579)"/></clipPath><clipPath id="by"><path class="j" d="M31.612,34.287a48.989,48.989,0,0,0-18.534-17.12C7.211,13.959,1.993,2.153.88,1.088c3.369-.283,9.768,0,18.289,4.971C28.1,11.275,31.464,28.451,31.612,34.287Z" transform="translate(-0.88 -1.012)"/></clipPath><clipPath id="ca"><path class="i" d="M2.2,38.071A49.137,49.137,0,0,1,18.435,18.633C23.862,14.682,27.528,2.254,28.5,1.049,25.106,1.2,18.768,2.3,10.927,8.358,2.707,14.7,1.586,32.241,2.2,38.071Z" transform="translate(-2.056 -1.049)"/></clipPath><clipPath id="cc"><path class="k" d="M.418,10.233c1.408-1.64,1.943-4.967,1.943-8.041S8.421.641,8.421.641s.442,4.652,1.3,6.059,4.819,1.877,4.819,1.877S7.589,24.537,4.473,22.19-.989,11.873.418,10.233Z" transform="translate(0 -0.263)"/></clipPath><linearGradient id="cd" x1="-0.727" y1="0.378" x2="0.789" y2="0.805" xlink:href="#a"/><linearGradient id="ce" x1="0.031" y1="0.785" x2="0.699" y2="0.449" xlink:href="#b"/><linearGradient id="cf" x1="0.461" y1="0.72" x2="0.424" gradientUnits="objectBoundingBox"><stop offset="0" stop-color="#fff"/><stop offset="1" stop-color="#d6e3fa"/></linearGradient><linearGradient id="cg" x1="1.246" y1="0.908" x2="0.098" y2="-0.153" gradientUnits="objectBoundingBox"><stop offset="0" stop-color="#ffe883"/><stop offset="1" stop-color="#fecc4c"/></linearGradient><clipPath id="ci"><path class="l" d="M103.422,2.233a16.938,16.938,0,0,1,9.247-.455l67.019,15.529a1.452,1.452,0,0,1,.154,2.784l-99.8,35.14a18.39,18.39,0,0,1-11.387.27L7.912,37.3a1.452,1.452,0,0,1-.048-2.766Z" transform="translate(-6.877 -1.341)"/></clipPath><linearGradient id="cj" x1="0.454" y1="1.379" x2="0.361" y2="0.5" xlink:href="#b"/><linearGradient id="ck" x1="0.454" y1="1.379" x2="0.728" y2="-1.087" xlink:href="#b"/></defs><g transform="translate(0 -0.752)"><path class="m" d="M0,39.035,166.829,0,377.272,76.268,219.6,141.385" transform="translate(0 257.042)"/><g transform="translate(192.373 291.488)"><path class="n" d="M.5.5,34.377,14.051" transform="translate(47.412 3.856)"/><path class="n" d="M.5,26.15,56.639.5" transform="translate(-0.5 -0.5)"/><path class="n" d="M.5,44.056,45.992.5" transform="translate(44.508 9.179)"/></g><g transform="translate(169.775 59.218)"><path class="o" d="M333.068,23.516V43.338c0,2.647-3.108,7.914-5.6,8.817L223.033,97.374a48.4,48.4,0,0,1-29.93,1.009L3.848,28.78A5.324,5.324,0,0,1,0,23.665V3.36L113.8.5A48.4,48.4,0,0,1,127.545.485Z" transform="translate(0.094 174.437)"/><g class="bv" transform="matrix(1, 0, 0, 1, -169.77, -58.47)"><path class="o" d="M333.068,23.516V46.725a6.291,6.291,0,0,1-4.144,5.914L223.033,97.374a48.4,48.4,0,0,1-29.93,1.009L3.848,30.232A5.324,5.324,0,0,1,0,25.117V3.36L113.8.5A48.4,48.4,0,0,1,127.545.485Z" transform="translate(169.87 207.74)"/></g><g class="bu" transform="matrix(1, 0, 0, 1, -169.77, -58.47)"><path class="o" d="M333.068,23.516V46.725a6.291,6.291,0,0,1-4.144,5.914L223.033,97.374a48.4,48.4,0,0,1-29.93,1.009L3.848,30.232A5.324,5.324,0,0,1,0,25.117V3.36L113.8.5A48.4,48.4,0,0,1,127.545.485Z" transform="translate(169.87 183.06)"/></g><g class="bt" transform="matrix(1, 0, 0, 1, -169.77, -58.47)"><path class="o" d="M333.068,23.516V46.725a6.291,6.291,0,0,1-4.144,5.914L223.033,97.374a48.4,48.4,0,0,1-29.93,1.009L3.848,30.232A5.324,5.324,0,0,1,0,25.117V3.36L113.8.5A48.4,48.4,0,0,1,127.545.485Z" transform="translate(169.87 156.92)"/></g><g class="bs" transform="matrix(1, 0, 0, 1, -169.77, -58.47)"><path class="o" d="M333.068,23.516V46.725a6.291,6.291,0,0,1-4.144,5.914L223.033,97.374a48.4,48.4,0,0,1-29.93,1.009L3.848,30.232A5.324,5.324,0,0,1,0,25.117V3.36L113.8.5A48.4,48.4,0,0,1,127.545.485Z" transform="translate(169.87 131.76)"/></g><g class="br" transform="matrix(1, 0, 0, 1, -169.77, -58.47)"><path class="o" d="M333.068,24V49.145a6.291,6.291,0,0,1-4.144,5.914L223.033,97.374a48.4,48.4,0,0,1-29.93,1.009L3.848,34.588A5.324,5.324,0,0,1,0,29.473V3.36L113.8.5A48.4,48.4,0,0,1,127.545.485Z" transform="translate(169.87 107.07)"/></g><g class="bq" transform="matrix(1, 0, 0, 1, -169.77, -58.47)"><path class="o" d="M333.068,29.808V52.533a6.291,6.291,0,0,1-4.144,5.914L223.033,97.374a48.4,48.4,0,0,1-29.93,1.009L3.848,38.459A5.324,5.324,0,0,1,0,33.344V12.071L113.8.5A48.4,48.4,0,0,1,127.545.485Z" transform="translate(169.77 81.75)"/></g><path class="p" d="M108.282,1.733a48.4,48.4,0,0,1,23.78-.479l194.927,45.26a7.259,7.259,0,0,1,.768,13.919L222.64,97.423a48.4,48.4,0,0,1-30.149.649L3.777,40.663a5.324,5.324,0,0,1,.138-10.226Z" transform="translate(0.259 0)"/><path class="q" d="M115.766,0,277.88,38.335,155.91,81.944,0,35.037Z" transform="translate(29.615 8.391)"/></g><g transform="translate(246.576 141.945)"><path class="r" d="M0,0,29.6,10.176" transform="translate(2.904 132.604)"/><path class="r" d="M0,0,29.6,10.176" transform="translate(2.904 108.89)"/><path class="r" d="M0,0,29.6,10.176" transform="translate(2.904 83.724)"/><path class="r" d="M0,0,29.6,10.176" transform="translate(2.904 57.107)"/><path class="r" d="M0,0,30.489,9.2" transform="translate(2.42 28.553)"/><path class="r" d="M1,147.607V0" transform="translate(33.845 9.679)"/><path class="r" d="M1,144.7V0" transform="translate(-1 0)"/></g><g transform="translate(91.52 274.934)"><g transform="translate(47.375 0.826)"><path class="s" d="M12.331,22.957a5.543,5.543,0,0,1-1.091-1.546H6a6,6,0,0,1-6-6V6A6,6,0,0,1,6,0H26.909a6,6,0,0,1,6,6v9.41a6,6,0,0,1-6,6H21.273a5.553,5.553,0,0,1-8.942,1.546Z"/><path class="q" d="M6.818,12.2c-13.3-7.256-3.681-16.277,0-10.2C10.5-4.074,20.12,4.947,6.818,12.2Z" transform="translate(9.679 5.154)"/></g><g transform="translate(0 0)"><g transform="translate(0.419 64.441)"><path class="a" d="M1.478,3.328c0,4.9-4.035,14.5,1.227,16.986S12.619,9.877,12.619,9.877,12.218.386,7.461.386,1.478-1.57,1.478,3.328Z" transform="translate(0 0)"/><g class="t" transform="translate(0 0)"><path class="u" d="M.023.271c.424.862,6.206,5.423,7.162,6.5s1.175,3.9,1.724,3.606,0-8.56,0-8.56S-.4-.591.023.271Z" transform="translate(1.152 5.251)"/></g></g><g transform="translate(10.577 176.093)"><path class="v" d="M.291,3.548c0,2.531-.654,5.694,0,6.951s3.9,1.918,4.964,1.918,1.427-1.8,3.088-.876,11.126.876,11.74-2.889S15.9,4.889,13.766,4.889,9.371,3.849,6.2,1.151.291,1.017.291,3.548Z" transform="translate(0 0)"/><g transform="translate(9.873 3.258)"><path class="w" d="M-1.977,3C-2.462,1.3-2.462.646-3.831,0" transform="translate(3.831 0)"/><path class="w" d="M-3.195,1.913c-.485-1.7-1.173-2.268-3-1.7" transform="translate(7.79 1.636)"/></g></g><g transform="translate(58.062 181.382)"><path class="v" d="M.322,3.548c0,2.531-.724,5.694,0,6.951s4.312,1.918,5.5,1.918,1.58-1.8,3.418-.876,12.316.876,13-2.889S17.6,4.889,15.239,4.889,10.375,3.849,6.866,1.151.322,1.017.322,3.548Z" transform="translate(0 0)"/><g transform="translate(11.231 3.333)"><path class="w" d="M-2.575,3.2C-3.06,1.5-3.44.714-4.989,0" transform="translate(4.989 0)"/><path class="w" d="M-3.195,1.913c-.485-1.7-1.173-2.268-3-1.7" transform="translate(8.076 1.561)"/></g></g><g transform="translate(11.136 93.55)"><path class="b" d="M38.97,0S49.3,37.861,50.649,46.476s4.638,37.735,4.173,42.431c-2.249,2.293-6.3.92-7.006.5S42.763,65.027,38.97,55.733s-12.328-17.848-17.952-27.2c0,6.086-4.343,22.374-4.343,22.374S10.342,79.671,8.187,84.327C7.164,85.979,2,84.768,0,84.327c0-4.363,4.317-26.4,4.317-34.054s-1.194-21.518-1.64-27.2S1.141,6.358,2.677,0Z" transform="translate(0 0)"/><g class="x" transform="translate(0 0)"><path class="y" d="M0,32.782C0,29.076,1.909-1.205,2.348.037S6.2,7.99,6.2,7.99,0,36.488,0,32.782Z" transform="translate(15.568 22.547)"/><path class="w" d="M0,0C.535,2.243,2.594,5.36,3.544,7.218" transform="translate(18.019 22.601)"/><path class="z" d="M.171,7.248c2.416,1.3,11.875,6.829,24.064,4.613,6.022-1.095,9.9-2.528,11.634-4.613,0-1.027-1.461-5.347-1.869-7S-2.787,5.657.171,7.248Z" transform="translate(4.897 -0.923)"/></g></g><g transform="translate(19.489 13.069)"><path class="c" d="M12.782,0a9.778,9.778,0,0,0,3.761,3.853C18.908,5,20.09,5.563,20.09,5.563l-1.005,3.9s1.874,5.735,1.005,7.668-3.547,3.218-5.106,4.942-3,7.572-3,7.572H1.71l-.465-7.572S-1.5,11.147,3.153,5.563,12.782,0,12.782,0Z" transform="translate(-0.442 0)"/><g class="aa" transform="translate(0 0)"><g class="ab" transform="translate(8.346 17.912)"><path class="ac" d="M7.477,3.132C4.883,3.132.837.836.059.051s6.484,7.7,5.878,9.055C5.458,10.173,3.75,10.5,4.827,10.5,8.711,10.5,10.07,3.132,7.477,3.132Z" transform="translate(0 0)"/><path class="ad" d="M7.477,3.132C4.883,3.132.837.836.059.051s6.484,7.7,5.878,9.055C5.458,10.173,3.75,10.5,4.827,10.5,8.711,10.5,10.07,3.132,7.477,3.132Z" transform="translate(0 0)"/></g></g></g><path class="ae" d="M12.364,34.824C3.3,26.356-3.869,19.13,2.318,9.061S22.9-4.393,25.59,7.847A10.438,10.438,0,0,1,21.712,15.9s-.725,1.476,1.187,3.042a1.652,1.652,0,0,1,0,2.86s-3.777-2.429-4.763.806S20.79,27,20.79,27.814c1.255,2.976-1.335,5.7-1.335,5.7S18.13,34.824,12.364,34.824Z" transform="translate(7.928 0)"/><path class="af" d="M11,0S1.3,17.012.129,20.755,11,26.664,11,26.664l5.023-21.4Z" transform="translate(-0.049 46.246)"/><g transform="translate(9.093 40.115)"><path class="d" d="M22.8.274s7.3,1.927,11.608,7.021,3.345,20.416,4.564,29.536,6.523,15.749-1.67,20.9-31.358,3.978-33.252,0S0,29.3,0,29.3s0-22,2.588-23.86S11.216,0,11.216,0s-.135.545,2.778,1.086S22.8.274,22.8.274Z" transform="translate(0 0)"/><g class="ag" transform="translate(0 0)"><path class="ah" d="M0,0S3.94,18.415,6.31,21.867s3.912,13.9,5.81,15.142,4.623-13,3.261-17.881S7.874,2.3,7.874,2.3Z" transform="translate(28.871 17.681)"/><path class="ai" d="M.2.867C1.951,2.03,6.52,2.66,10.36,2.66s5.041.041,6.879-.519,1.125-1.274,0-1.274-4.614-.82-6.493-.82S-1.556-.3.2.867Z" transform="translate(12.753 0.394)"/></g></g><path class="aj" d="M.226,4.042S0,1.225,0,.317,7.565.691,13.009,1.2A7.747,7.747,0,0,1,13.5,4.042c0,.213-1.36,2.036-8.674,1.445A11,11,0,0,1,.226,4.042Z" transform="translate(19.751 36.347)"/><g transform="matrix(0.899, -0.438, 0.438, 0.899, 24.642, 32.059)"><path class="ak" d="M5.281,5.895c4.012,0,9.559-1.459,9.559-3.351S10.276,0,6.264,0,.5,1.892,0,3.208C.245,4.327,1.27,5.895,5.281,5.895Z" transform="translate(8.761 40.494) rotate(-40)"/><g transform="translate(8.618 0)"><path class="e" d="M7.557,30.009l6.661,4.907S25.182,18.99,26.15,16.81s0-5.839,0-7.057.719-3.906,1.765-4.695,1.168-.383,1.8-.383C33,5.863,38.05.505,39.287.051s1.648,2.212,1.665,3.842a18.8,18.8,0,0,1-1.961,7.615c-1.254,2.149-5.421,5.572-5.421,6.521s-6.925,15.3-9.438,21.109-4.882,9.725-9.913,8.1S0,37.274,0,37.274s1.8-4.248,3.537-5.585A9.883,9.883,0,0,1,7.557,30.009Z" transform="matrix(0.978, 0.208, -0.208, 0.978, 9.898, 0)"/><g class="al" transform="translate(0)"><path class="u" d="M9.523,0S3.907,7.815,3.6,10.769,0,7.737,0,7.737s1.879-3.606,3.46-4.89S9.523,0,9.523,0Z" transform="translate(3.418 32.779)"/><path class="am" d="M0,0A4.351,4.351,0,0,1,1.113,2.233" transform="translate(16.501 36.836)"/></g></g><path class="an" d="M10.774,27.407c2.664-3.5,6.381-8.286,11.039-9.965C13.075,7.275,10.414,3.882,7.66.7S-3.033,5.761,1.236,13.87A60.32,60.32,0,0,0,10.774,27.407Z" transform="translate(0 15.489)"/></g></g></g><path class="ao" d="M0,22.679,121.937,0,242.621,10.019,92.469,86.928" transform="translate(145.187 454.339)"/><g transform="translate(242.462 359.721)"><g transform="translate(43.072 38.479)"><path class="ap" d="M12.092,22.957a5.461,5.461,0,0,1-1.087-1.546H6a6,6,0,0,1-6-6V6A6,6,0,0,1,6,0H26.425a6,6,0,0,1,6,6v9.41a6,6,0,0,1-6,6H20.973a5.464,5.464,0,0,1-1.03,1.43l-.115.116a5.469,5.469,0,0,1-7.735,0Z"/><path class="q" d="M6.717,12.2C-6.388,4.947,3.09-4.074,6.717,2,10.345-4.074,19.824,4.947,6.717,12.2Z" transform="translate(9.537 5.154)"/></g><g transform="matrix(0.978, -0.208, 0.208, 0.978, 22.854, 22.288)"><path class="s" d="M12.092,22.957a5.461,5.461,0,0,1-1.087-1.546H6a6,6,0,0,1-6-6V6A6,6,0,0,1,6,0H26.425a6,6,0,0,1,6,6v9.41a6,6,0,0,1-6,6H20.973a5.464,5.464,0,0,1-1.03,1.43l-.115.116a5.469,5.469,0,0,1-7.735,0Z"/><path class="q" d="M6.717,12.2C-6.388,4.947,3.09-4.074,6.717,2,10.345-4.074,19.824,4.947,6.717,12.2Z" transform="translate(9.537 5.154)"/></g><g transform="translate(103.083 45.254)"><path class="s" d="M12.092,22.957a5.461,5.461,0,0,1-1.087-1.546H6a6,6,0,0,1-6-6V6A6,6,0,0,1,6,0H26.425a6,6,0,0,1,6,6v9.41a6,6,0,0,1-6,6H20.973a5.464,5.464,0,0,1-1.03,1.43l-.115.116a5.469,5.469,0,0,1-7.735,0Z"/><path class="q" d="M6.717,12.2C-6.388,4.947,3.09-4.074,6.717,2,10.345-4.074,19.824,4.947,6.717,12.2Z" transform="translate(9.537 5.154)"/></g><g transform="translate(62.43 40.899)"><path class="s" d="M12.092,22.957a5.461,5.461,0,0,1-1.087-1.546H6a6,6,0,0,1-6-6V6A6,6,0,0,1,6,0H26.425a6,6,0,0,1,6,6v9.41a6,6,0,0,1-6,6H20.973a5.464,5.464,0,0,1-1.03,1.43l-.115.116a5.469,5.469,0,0,1-7.735,0Z"/><path class="q" d="M6.717,12.2C-6.388,4.947,3.09-4.074,6.717,2,10.345-4.074,19.824,4.947,6.717,12.2Z" transform="translate(9.537 5.154)"/></g><g transform="translate(120.956 24.036) rotate(13)"><path class="s" d="M12.092,22.957a5.461,5.461,0,0,1-1.087-1.546H6a6,6,0,0,1-6-6V6A6,6,0,0,1,6,0H26.425a6,6,0,0,1,6,6v9.41a6,6,0,0,1-6,6H20.973a5.464,5.464,0,0,1-1.03,1.43l-.115.116a5.469,5.469,0,0,1-7.735,0Z"/><path class="q" d="M6.717,12.2C-6.388,4.947,3.09-4.074,6.717,2,10.345-4.074,19.824,4.947,6.717,12.2Z" transform="translate(9.537 5.154)"/></g><g transform="matrix(0.966, 0.259, -0.259, 0.966, 54.75, 8.11)"><path class="s" d="M12.092,22.957a5.461,5.461,0,0,1-1.087-1.546H6a6,6,0,0,1-6-6V6A6,6,0,0,1,6,0H26.425a6,6,0,0,1,6,6v9.41a6,6,0,0,1-6,6H20.973a5.464,5.464,0,0,1-1.03,1.43l-.115.116a5.469,5.469,0,0,1-7.735,0Z"/><path class="q" d="M6.717,12.2C-6.388,4.947,3.09-4.074,6.717,2,10.345-4.074,19.824,4.947,6.717,12.2Z" transform="translate(9.537 5.154)"/></g><g transform="matrix(0.985, -0.174, 0.174, 0.985, 48.309, 36.169)"><path class="s" d="M12.092,22.957a5.461,5.461,0,0,1-1.087-1.546H6a6,6,0,0,1-6-6V6A6,6,0,0,1,6,0H26.425a6,6,0,0,1,6,6v9.41a6,6,0,0,1-6,6H20.973a5.464,5.464,0,0,1-1.03,1.43l-.115.116a5.469,5.469,0,0,1-7.735,0Z"/><path class="q" d="M6.717,12.2C-6.388,4.947,3.09-4.074,6.717,2,10.345-4.074,19.824,4.947,6.717,12.2Z" transform="translate(9.537 5.154)"/></g><g transform="matrix(-0.819, -0.574, 0.574, -0.819, 106.224, 38.716)"><path class="s" d="M12.092,22.957a5.461,5.461,0,0,1-1.087-1.546H6a6,6,0,0,1-6-6V6A6,6,0,0,1,6,0H26.425a6,6,0,0,1,6,6v9.41a6,6,0,0,1-6,6H20.973a5.464,5.464,0,0,1-1.03,1.43l-.115.116a5.469,5.469,0,0,1-7.735,0Z"/><path class="q" d="M6.717,12.2C-6.388,4.947,3.09-4.074,6.717,2,10.345-4.074,19.824,4.947,6.717,12.2Z" transform="translate(9.537 5.154)"/></g><g transform="matrix(1, 0.017, -0.017, 1, 77.192, 22.712)"><path class="s" d="M12.092,22.957a5.461,5.461,0,0,1-1.087-1.546H6a6,6,0,0,1-6-6V6A6,6,0,0,1,6,0H26.425a6,6,0,0,1,6,6v9.41a6,6,0,0,1-6,6H20.973a5.464,5.464,0,0,1-1.03,1.43l-.115.116a5.469,5.469,0,0,1-7.735,0Z"/><path class="q" d="M6.717,12.2C-6.388,4.947,3.09-4.074,6.717,2,10.345-4.074,19.824,4.947,6.717,12.2Z" transform="translate(9.537 5.154)"/></g><g transform="matrix(0.998, 0.07, -0.07, 0.998, 77.9, 37.864)"><path class="s" d="M12.092,22.957a5.461,5.461,0,0,1-1.087-1.546H6a6,6,0,0,1-6-6V6A6,6,0,0,1,6,0H26.425a6,6,0,0,1,6,6v9.41a6,6,0,0,1-6,6H20.973a5.464,5.464,0,0,1-1.03,1.43l-.115.116a5.469,5.469,0,0,1-7.735,0Z"/><path class="q" d="M6.717,12.2C-6.388,4.947,3.09-4.074,6.717,2,10.345-4.074,19.824,4.947,6.717,12.2Z" transform="translate(9.537 5.154)"/></g><g transform="matrix(0.914, -0.407, 0.407, 0.914, 92.878, 32.168)"><path class="s" d="M12.092,22.957a5.461,5.461,0,0,1-1.087-1.546H6a6,6,0,0,1-6-6V6A6,6,0,0,1,6,0H26.425a6,6,0,0,1,6,6v9.41a6,6,0,0,1-6,6H20.973a5.464,5.464,0,0,1-1.03,1.43l-.115.116a5.469,5.469,0,0,1-7.735,0Z"/><path class="q" d="M6.717,12.2C-6.388,4.947,3.09-4.074,6.717,2,10.345-4.074,19.824,4.947,6.717,12.2Z" transform="translate(9.537 5.154)"/></g><path class="aq" d="M0,0,58.559,26.225V89.048L1.9,59.72Z" transform="translate(23.23 34.123)"/><g transform="translate(81.789 45.738)"><path class="f" d="M-72.246,0-140,14.644V77.433l66.48-19.318Z" transform="translate(140)"/><g class="ar"><path class="as" d="M0,14.091,62.823,73.708,53.356,0Z" transform="translate(16.032 -11.2)"/></g></g><path class="at" d="M23.332,0,0,24.125,57.854,52.751,81.3,26.55Z" transform="translate(0 33.639)"/><path class="au" d="M-122.855,0l24.807,26.08-67.027,15.056L-190,14.434Z" transform="translate(271.789 45.738)"/></g><g transform="translate(90.926 167.149)"><g transform="translate(11.071 50.196)"><path class="av" d="M17.4,1.11C26.7,1.11,34.23,4.238,34.23,8.1S26.7,15.08,17.4,15.08.579,11.953.579,8.1,8.112,1.11,17.4,1.11Z" transform="translate(-0.579 18.269)"/><g transform="translate(0.841 3.365)"><path class="g" d="M38.985,1.543A14.7,14.7,0,0,1,40.96,8.87c0,9.37-9.04,16.966-20.19,16.966S.579,18.24.579,8.87a14.756,14.756,0,0,1,2.2-7.712C11.725,2.574,29.528,2.483,38.985,1.543Z" transform="translate(-0.579 -1.158)"/></g><g transform="translate(2.804 0)"><path class="h" d="M19.527.579c10.144,0,18.368,1.946,18.368,4.347S29.671,9.273,19.527,9.273,1.159,7.327,1.159,4.926,9.382.579,19.527.579Z" transform="translate(-1.159 -0.579)"/></g></g><g transform="translate(0 0)"><g transform="translate(13.034)"><g transform="translate(0)"><path class="i" d="M18.246,51.9A58.766,58.766,0,0,0,6.188,24.135C1.3,17.775,1.285,2.287.579.579,4.414,1.9,11.3,5.3,18.246,14.881,25.525,24.928,20.907,45.417,18.246,51.9Z" transform="translate(-0.579 -0.579)"/><g class="ay"><path class="az" d="M8.916,39.315C9.682,22.441,7.581,11.792.975,1.738" transform="translate(8.47 12.002)"/></g></g></g><g transform="translate(0 25.167)"><g transform="translate(0 0)"><path class="j" d="M31.612,34.287a48.989,48.989,0,0,0-18.534-17.12C7.211,13.959,1.993,2.153.88,1.088c3.369-.283,9.768,0,18.289,4.971C28.1,11.275,31.464,28.451,31.612,34.287Z" transform="translate(-0.88 -1.012)"/><g class="ba"><path class="az" d="M19.673,28.346C14.584,15.22,9.4,7.8.981,2.357" transform="translate(10.845 5.024)"/></g></g></g><g transform="translate(32.818 22.1)"><g transform="translate(0 0)"><path class="i" d="M2.2,38.071A49.137,49.137,0,0,1,18.435,18.633C23.862,14.682,27.528,2.254,28.5,1.049,25.106,1.2,18.768,2.3,10.927,8.358,2.707,14.7,1.586,32.241,2.2,38.071Z" transform="translate(-2.056 -1.049)"/><g class="bb"><path class="az" d="M.877,29.4C4.241,15.671,8.442,7.619,16.122,1.109" transform="translate(-1.447 7.613)"/></g></g></g></g></g><g transform="translate(192.131 142.187)"><path class="bc" d="M0,174.708,54.2,0"/><path class="bc" d="M0,0,32.909,9.679" transform="translate(48.396 24.682)"/><path class="bc" d="M0,0,35.329,11.131" transform="translate(40.168 47.912)"/><path class="bc" d="M0,0,34.845,12.1" transform="translate(33.877 71.626)"/><path class="bc" d="M0,0,38.716,13.551" transform="translate(26.134 94.371)"/><path class="bc" d="M0,0,40.25,15.045" transform="translate(19.358 117.601)"/><path class="bd" d="M0,0,40.652,15" transform="translate(11.131 143.251)"/><path class="bc" d="M.5,195.967,43.341,1" transform="translate(44.508 6.327)"/></g><g transform="translate(230.883 0.752)"><g transform="translate(32.116 21.559)"><path class="k" d="M.418,10.233c1.408-1.64,1.943-4.967,1.943-8.041S8.421.641,8.421.641s.442,4.652,1.3,6.059,4.819,1.877,4.819,1.877S7.589,24.537,4.473,22.19-.989,11.873.418,10.233Z" transform="translate(0 -0.263)"/><g class="be" transform="translate(0 0)"><path class="u" d="M0,3.456S4.855,7.538,8.023,5.244,8.023,0,8.023,0Z" transform="translate(1.282 0.458)"/></g></g><path class="bf" d="M0,2.533c0,3.328.682,10.087,1.305,12.05s4.095,5.041,7.2,4.094,4.576-4.895,4.576-6.136a53.86,53.86,0,0,1,1.107-6S15.6.113,13.085.113,0-.8,0,2.533Z" transform="translate(29.509 7.273)"/><path class="bg" d="M14.56,9.865C10.7,12.42-1.164,12.779.093,6.151s10.961-8.011,16-3.606c2.19,1.914,3.8,7.32,1.154,13.114a9.532,9.532,0,0,1-2.689,3.164S15.128,13.027,14.56,9.865Z" transform="translate(27.977 0)"/><path class="bh" d="M3.009,8.958c1.568-.5,11.739-3.077,12.871-4.284s.639-3-1.529-3.3S3.2,0,2.323,0-.4,3.422.079,5.873,1.441,9.461,3.009,8.958Z" transform="translate(73.301 90.637)"/><path class="bh" d="M2.39,7.115c1.246-.4,9.325-2.444,10.223-3.4s.508-2.386-1.215-2.624S2.538,0,1.845,0-.321,2.718.063,4.665,1.144,7.515,2.39,7.115Z" transform="translate(32.166 97.899)"/><path class="bi" d="M17.588,1.891c-1.181,2.1-16,25.037-17.236,30.324s.972,9.145,3.855,9.145,17.849.318,19.424-1.049,1.777-9.462,0-9.462H12.842S22.477,18.106,23.63,18.106s3.893,26.748,6.8,27.834,31.852-8.223,33.44-9.7.011-9.415-4.935-9.415-17.924,6.584-17.924,4.979S40.524,7.76,39.559,3.143,18.768-.2,17.588,1.891Z" transform="translate(12.513 65.182)"/><path class="bj" d="M65.84,17.228c-2.62-1.374-9.259-7.45-17-15.066C47.611.949,42.861,0,42.861,0S41.929,3.13,37.5,3.13s-4.3-1.958-4.3-1.958a21.443,21.443,0,0,0-6.583,4.146C23.914,8,17.693,18.082,14.132,19.684S0,27.281,0,27.281l6.286,1.705s7.121-2.168,10.955-3.6,10.646-7.022,10.646-7.022-5.1,21.658-2.835,25.078,22.285,2.99,24.76,0,0-28.038,0-28.038L60.258,22.5l11.5,3.92,8.418-.064S69.993,19.406,65.84,17.228Z" transform="translate(0 28.722)"/></g><g transform="translate(210.535 55.143)"><rect class="bk" width="106.954" height="32.428" rx="9"/><circle class="bl" cx="11.947" cy="11.947" r="11.947" transform="translate(4.267 4.267)"/><rect class="bl" width="66.278" height="4.836" rx="2.418" transform="translate(32.428 5.689)"/><rect class="bl" width="50.633" height="4.836" rx="2.418" transform="translate(32.428 13.654)"/><rect class="bm" width="18.774" height="3.413" rx="1.707" transform="translate(32.428 23.325)"/></g><g transform="translate(286.533 89.237)"><path class="l" d="M103.422,2.233a16.938,16.938,0,0,1,9.247-.455l67.019,15.529a1.452,1.452,0,0,1,.154,2.784l-99.8,35.14a18.39,18.39,0,0,1-11.387.27L7.912,37.3a1.452,1.452,0,0,1-.048-2.766Z" transform="translate(-6.877 -1.341)"/><g class="bn" transform="translate(0 0)"><path class="bo" d="M85.772,1.322c2.193,8.761,10.647,24.506,1.538,30.9S6.73,30.211.327,30.211,83.579-7.439,85.772,1.322Z" transform="translate(22.715 -9.964)"/><ellipse class="bp" cx="15.245" cy="4.356" rx="15.245" ry="4.356" transform="translate(60.948 32.625)"/><path class="bo" d="M85.772,1.322c2.193,8.761,10.647,24.506,1.538,30.9S6.73,30.211.327,30.211,83.579-7.439,85.772,1.322Z" transform="translate(-41.167 3.587)"/></g></g></g></svg>