<svg xmlns="http://www.w3.org/2000/svg" xmlns:xlink="http://www.w3.org/1999/xlink" width="395.365" height="420" viewBox="0 0 395.365 420"><defs><style>.a{fill:url(#a);}.b{opacity:0.1;}.c{fill:#7e9aca;}.d{fill:#fff;}.e{fill:rgba(0,0,0,0);stroke:#d6e3fa;stroke-miterlimit:10;stroke-width:5px;opacity:0.4;}.f{fill:#faca39;}.g{fill:url(#b);}</style><radialGradient id="a" cx="0.863" cy="0.113" r="1.205" gradientUnits="objectBoundingBox"><stop offset="0" stop-color="#edf3fd"/><stop offset="0.409" stop-color="#dce8fb"/><stop offset="1" stop-color="#aebdd8"/></radialGradient><linearGradient id="b" x1="0.5" y1="1.356" x2="0.5" y2="0.103" gradientUnits="objectBoundingBox"><stop offset="0" stop-color="#fde76b"/><stop offset="1" stop-color="#fab539"/></linearGradient></defs><g transform="translate(-1.078 -1)"><path class="a" d="M386.829,421H10.692a9.613,9.613,0,0,1-9.613-9.614V10.614A9.613,9.613,0,0,1,10.692,1H386.829a9.613,9.613,0,0,1,9.614,9.614V411.387A9.624,9.624,0,0,1,386.829,421Z" transform="translate(0 0)"/><g class="b" transform="translate(71.378 70.7)"><path class="c" d="M112.838,111.558H7.086a6.009,6.009,0,0,1-6.009-6.009V7.009A6.009,6.009,0,0,1,7.086,1H112.838a6.009,6.009,0,0,1,6.009,6.009v98.541A6.021,6.021,0,0,1,112.838,111.558Z" transform="translate(-1.078 -1)"/><path class="c" d="M112.838,111.558H7.086a6.009,6.009,0,0,1-6.009-6.009V7.009A6.009,6.009,0,0,1,7.086,1H112.838a6.009,6.009,0,0,1,6.009,6.009v98.541A6.021,6.021,0,0,1,112.838,111.558Z" transform="translate(148.536 -1)"/><path class="c" d="M64.168,71.1H7.086A6.009,6.009,0,0,1,1.078,65.09V8.009A6.009,6.009,0,0,1,7.086,2H64.168a6.009,6.009,0,0,1,6.009,6.009V65.09A6.021,6.021,0,0,1,64.168,71.1Z" transform="translate(-1.078 138.601)"/><path class="c" d="M64.168,70.1H7.086A6.009,6.009,0,0,1,1.078,64.09V7.009A6.009,6.009,0,0,1,7.086,1H64.168a6.009,6.009,0,0,1,6.009,6.009V64.09A6.021,6.021,0,0,1,64.168,70.1Z" transform="translate(-1.078 223.721)"/><path class="c" d="M185.542,20.026H2.88a1.8,1.8,0,0,1-1.8-1.8V3.8A1.8,1.8,0,0,1,2.88,2H185.542a1.8,1.8,0,0,1,1.8,1.8V18.223A1.815,1.815,0,0,1,185.542,20.026Z" transform="translate(78.236 139.803)"/><path class="c" d="M185.542,19.026H2.88a1.8,1.8,0,0,1-1.8-1.8V2.8A1.8,1.8,0,0,1,2.88,1H185.542a1.8,1.8,0,0,1,1.8,1.8V17.223A1.815,1.815,0,0,1,185.542,19.026Z" transform="translate(78.236 224.923)"/><path class="c" d="M143.481,19.026H2.88a1.8,1.8,0,0,1-1.8-1.8V2.8A1.8,1.8,0,0,1,2.88,1h140.6a1.8,1.8,0,0,1,1.8,1.8V17.223A1.815,1.815,0,0,1,143.481,19.026Z" transform="translate(78.236 170.846)"/><path class="c" d="M143.481,19.026H2.88a1.8,1.8,0,0,1-1.8-1.8V2.8A1.8,1.8,0,0,1,2.88,1h140.6a1.8,1.8,0,0,1,1.8,1.8V17.223A1.815,1.815,0,0,1,143.481,19.026Z" transform="translate(78.236 254.966)"/></g><g transform="translate(64.769 64.09)"><path class="d" d="M112.838,111.558H7.086a6.009,6.009,0,0,1-6.009-6.009V7.009A6.009,6.009,0,0,1,7.086,1H112.838a6.009,6.009,0,0,1,6.009,6.009v98.541A6.021,6.021,0,0,1,112.838,111.558Z" transform="translate(-1.078 -1)"/><g transform="translate(8.752 23.064)"><path class="e" d="M4.644,61.5l12.9-28.452L38.39,37.187,54.426,15.265,81,4.6l23.212,15.434" transform="translate(-4.644 -1.466)"/><path class="f" d="M5.652,9.064a4.009,4.009,0,0,0,4.16-3.84,4.009,4.009,0,0,0-4.16-3.84,4.009,4.009,0,0,0-4.16,3.84A4.009,4.009,0,0,0,5.652,9.064Z" transform="translate(27.858 29.86)"/><path class="f" d="M5.652,11.089a4.16,4.16,0,1,0-4.16-4.16A4.16,4.16,0,0,0,5.652,11.089Z" transform="translate(7.429 26.303)"/><path class="f" d="M5.652,9.064a4.009,4.009,0,0,0,4.16-3.84,4.009,4.009,0,0,0-4.16-3.84,4.009,4.009,0,0,0-4.16,3.84A4.009,4.009,0,0,0,5.652,9.064Z" transform="translate(44.082 8.229)"/><path class="f" d="M5.652,9.064a4.009,4.009,0,0,0,4.16-3.84,4.009,4.009,0,0,0-4.16-3.84,4.009,4.009,0,0,0-4.16,3.84A4.009,4.009,0,0,0,5.652,9.064Z" transform="translate(70.519 -1.385)"/></g></g><g transform="translate(214.383 64.09)"><path class="d" d="M112.838,111.558H7.086a6.009,6.009,0,0,1-6.009-6.009V7.009A6.009,6.009,0,0,1,7.086,1H112.838a6.009,6.009,0,0,1,6.009,6.009v98.541A6.021,6.021,0,0,1,112.838,111.558Z" transform="translate(-1.078 -1)"/><g transform="translate(19.828 34.249)"><path class="g" d="M17.3,63.288H3.481a2.4,2.4,0,0,1-2.4-2.4V4.4A2.4,2.4,0,0,1,3.481,2H17.3a2.4,2.4,0,0,1,2.4,2.4V60.884A2.415,2.415,0,0,1,17.3,63.288Z" transform="translate(-1.078 -2)"/><path class="g" d="M17.3,48.4H3.481a2.179,2.179,0,0,1-2.4-1.838V3.367a2.179,2.179,0,0,1,2.4-1.838H17.3a2.179,2.179,0,0,1,2.4,1.838V46.558C19.7,47.559,18.659,48.373,17.3,48.4Z" transform="translate(28.965 12.891)"/><path class="g" d="M17.3,36.608H3.481c-1.327,0-2.4-.622-2.4-1.39V2.547c0-.768,1.076-1.39,2.4-1.39H17.3c1.327,0,2.4.622,2.4,1.39v32.67C19.7,35.974,18.659,36.59,17.3,36.608Z" transform="translate(58.407 24.68)"/></g></g><g transform="translate(64.769 204.691)"><path class="d" d="M185.542,20.026H2.88a1.8,1.8,0,0,1-1.8-1.8V3.8A1.8,1.8,0,0,1,2.88,2H185.542a1.8,1.8,0,0,1,1.8,1.8V18.223A1.815,1.815,0,0,1,185.542,20.026Z" transform="translate(80.038 -0.798)"/><path class="d" d="M185.542,19.026H2.88a1.8,1.8,0,0,1-1.8-1.8V2.8A1.8,1.8,0,0,1,2.88,1H185.542a1.8,1.8,0,0,1,1.8,1.8V17.223A1.815,1.815,0,0,1,185.542,19.026Z" transform="translate(80.038 84.322)"/><path class="d" d="M143.481,19.026H2.881a1.8,1.8,0,0,1-1.8-1.8V2.8A1.8,1.8,0,0,1,2.881,1h140.6a1.8,1.8,0,0,1,1.8,1.8V17.223A1.815,1.815,0,0,1,143.481,19.026Z" transform="translate(80.038 30.245)"/><path class="d" d="M143.481,19.026H2.881a1.8,1.8,0,0,1-1.8-1.8V2.8A1.8,1.8,0,0,1,2.881,1h140.6a1.8,1.8,0,0,1,1.8,1.8V17.223A1.815,1.815,0,0,1,143.481,19.026Z" transform="translate(80.038 114.365)"/><path class="d" d="M64.168,71.1H7.086A6.009,6.009,0,0,1,1.078,65.09V8.009A6.009,6.009,0,0,1,7.086,2H64.168a6.009,6.009,0,0,1,6.009,6.009V65.09A6.021,6.021,0,0,1,64.168,71.1Z" transform="translate(-1.078 -2)"/><path class="d" d="M64.168,70.1H7.086A6.009,6.009,0,0,1,1.078,64.09V7.009A6.009,6.009,0,0,1,7.086,1H64.168a6.009,6.009,0,0,1,6.009,6.009V64.09A6.021,6.021,0,0,1,64.168,70.1Z" transform="translate(-1.078 83.12)"/></g></g></svg>