<svg xmlns="http://www.w3.org/2000/svg" xmlns:xlink="http://www.w3.org/1999/xlink" width="798.707" height="910" viewBox="0 0 798.707 910"><defs><style>.a{fill:#fff;}.b{clip-path:url(#e);}.c{opacity:0.6;}.d{fill:url(#f);}.e,.f{fill:#a1b8e3;}.f,.i{opacity:0.5;}.g{fill:url(#i);}.h,.i{fill:#ffb417;}.j{filter:url(#c);}.k{filter:url(#a);}</style><filter id="a" x="0" y="0" width="798.707" height="910" filterUnits="userSpaceOnUse"><feOffset input="SourceAlpha"/><feGaussianBlur stdDeviation="81" result="b"/><feFlood flood-color="#fff"/><feComposite operator="in" in2="b"/><feComposite in="SourceGraphic"/></filter><filter id="c" x="0" y="0" width="798.707" height="910" filterUnits="userSpaceOnUse"><feOffset input="SourceAlpha"/><feGaussianBlur stdDeviation="81" result="d"/><feFlood flood-color="#fff"/><feComposite operator="in" in2="d"/><feComposite in="SourceGraphic"/></filter><clipPath id="e"><g class="k" transform="matrix(1, 0, 0, 1, 0, 0)"><rect class="a" width="312.707" height="424" rx="12"/></g></clipPath><linearGradient id="f" x1="0.551" y1="2.27" x2="0.232" y2="0.81" gradientUnits="objectBoundingBox"><stop offset="0" stop-color="#edf3fd"/><stop offset="1" stop-color="#d6e3fa"/></linearGradient><linearGradient id="i" x1="0.906" y1="1.727" x2="0.33" y2="0.5" gradientUnits="objectBoundingBox"><stop offset="0" stop-color="#ffe883"/><stop offset="1" stop-color="#fecc4c"/></linearGradient></defs><g transform="translate(-646.293 17)"><g transform="translate(889.293 226)"><g class="j" transform="matrix(1, 0, 0, 1, -243, -243)"><rect class="a" width="312.707" height="424" rx="12" transform="translate(243 243)"/></g><g class="b"><g class="c" transform="translate(15.034 325.114)"><rect class="d" width="282.639" height="81.101" rx="20"/><circle class="e" cx="29.879" cy="29.879" r="29.879" transform="translate(11.276 10.671)"/><rect class="e" width="175.146" height="12.094" rx="6.047" transform="translate(85.694 14.228)"/><rect class="e" width="133.803" height="12.094" rx="6.047" transform="translate(85.694 34.148)"/><rect class="f" width="49.612" height="8.537" rx="4.268" transform="translate(85.694 58.336)"/></g><g class="c" transform="translate(15.034 226.94)"><rect class="d" width="282.639" height="81.101" rx="20"/><circle class="e" cx="29.879" cy="29.879" r="29.879" transform="translate(11.276 10.671)"/><rect class="e" width="175.146" height="12.094" rx="6.047" transform="translate(85.694 14.228)"/><rect class="e" width="133.803" height="12.094" rx="6.047" transform="translate(85.694 34.148)"/><rect class="f" width="49.612" height="8.537" rx="4.268" transform="translate(85.694 58.336)"/></g><g class="c" transform="translate(15.034 22.054)"><rect class="d" width="282.639" height="81.101" rx="20"/><circle class="e" cx="29.879" cy="29.879" r="29.879" transform="translate(11.276 10.671)"/><rect class="e" width="175.146" height="12.094" rx="6.047" transform="translate(85.694 14.228)"/><rect class="e" width="133.803" height="12.094" rx="6.047" transform="translate(85.694 34.148)"/><rect class="f" width="49.612" height="8.537" rx="4.268" transform="translate(85.694 58.336)"/></g></g></g><g transform="translate(860.836 344.094)"><rect class="g" width="267.49" height="81.101" rx="20"/><circle class="h" cx="29.879" cy="29.879" r="29.879" transform="translate(10.671 10.671)"/><rect class="h" width="165.758" height="12.094" rx="6.047" transform="translate(81.101 14.228)"/><rect class="h" width="126.631" height="12.094" rx="6.047" transform="translate(81.101 34.148)"/><rect class="i" width="46.953" height="8.537" rx="4.268" transform="translate(81.101 58.336)"/></g></g></svg>