<svg xmlns="http://www.w3.org/2000/svg" width="68.81" height="16.248" viewBox="0 0 68.81 16.248"><defs><style>.a{fill:#80b500;}.b{fill:#2b8ac9;}</style></defs><path class="a" d="M42.525,197.228q.766-.087,1.436-.148t1.488-.061a10.249,10.249,0,0,1,1.888.174,5.114,5.114,0,0,1,1.68.618,3.475,3.475,0,0,1,1.209,1.2,3.646,3.646,0,0,1,.461,1.923,3.948,3.948,0,0,1-.174,1.227,3.751,3.751,0,0,1-.444.931,3.816,3.816,0,0,1-.583.687,4.06,4.06,0,0,1-.592.461l-.3.192,3.046,5.291-.731.069c-.255.023-.516.035-.783.035a8.158,8.158,0,0,1-1.305-.1l-3.272-5.813.417-.209q.244-.121.592-.313a3.649,3.649,0,0,0,.67-.479,2.631,2.631,0,0,0,.548-.7,2.3,2.3,0,0,0-.4-2.576,2.471,2.471,0,0,0-1.619-.513,4.271,4.271,0,0,0-.7.052v10.565q-.313.035-.626.061t-.609.026q-.3,0-.626-.017t-.679-.07Z" transform="translate(-42.525 -197.019)"/><path class="a" d="M125.859,204.257H128.5v8.5h-2.642Zm2.73-2.364a1.327,1.327,0,0,1-1.426,1.322,1.331,1.331,0,1,1,.017-2.66,1.325,1.325,0,0,1,1.408,1.338" transform="translate(-116.12 -200.144)"/><path class="a" d="M161.624,234.445a2.078,2.078,0,0,0-.052-.487,1.449,1.449,0,0,0-1.426-1.164c-.956,0-1.738.869-1.738,2.416,0,1.269.626,2.26,1.738,2.26a1.435,1.435,0,0,0,1.391-1.078,2.235,2.235,0,0,0,.087-.695Zm2.712-3.46c-.035.539-.069,1.252-.069,2.521v4.746a4.884,4.884,0,0,1-1.286,3.824,5.243,5.243,0,0,1-3.46,1.044,6.623,6.623,0,0,1-3.06-.661l.522-2a5.225,5.225,0,0,0,2.468.643,2.029,2.029,0,0,0,2.208-2.243V238.3h-.035a2.718,2.718,0,0,1-2.294,1.113c-2.1,0-3.6-1.7-3.6-4.155,0-2.729,1.773-4.468,3.859-4.468a2.562,2.562,0,0,1,2.33,1.2h.035l.087-1.008Z" transform="translate(-142.585 -226.872)"/><path class="a" d="M240.015,199.355h2.642v4.851h.035a3.181,3.181,0,0,1,1.043-.869,2.965,2.965,0,0,1,1.373-.33c1.687,0,2.973,1.165,2.973,3.72V211.7h-2.642v-4.676c0-1.113-.383-1.878-1.373-1.878a1.406,1.406,0,0,0-1.321.921,1.682,1.682,0,0,0-.087.591V211.7h-2.642Z" transform="translate(-217.082 -199.084)"/><path class="a" d="M316.491,211.48v2.434h1.895v1.947h-1.895v3.077c0,1.026.243,1.5,1.043,1.5a4.316,4.316,0,0,0,.782-.07l.018,2a5.194,5.194,0,0,1-1.721.226,2.75,2.75,0,0,1-1.983-.73,3.524,3.524,0,0,1-.73-2.521v-3.477h-1.13v-1.947h1.13v-1.843Z" transform="translate(-281.389 -209.801)"/><path class="b" d="M372.066,214.673a7.542,7.542,0,0,1-3.008.5c-4.051,0-6.137-2.521-6.137-5.859,0-4,2.851-6.224,6.4-6.224a6.91,6.91,0,0,1,2.886.522l-.539,2.1a5.714,5.714,0,0,0-2.225-.435,3.852,3.852,0,0,0,.017,7.7,6.615,6.615,0,0,0,2.208-.383Z" transform="translate(-325.717 -202.389)"/><path class="b" d="M444.1,235.227c0,1.461.609,2.556,1.739,2.556,1.026,0,1.686-1.026,1.686-2.556,0-1.269-.487-2.555-1.686-2.555-1.269,0-1.739,1.3-1.739,2.555m6.154-.087a4.265,4.265,0,0,1-4.485,4.538,4.164,4.164,0,0,1-4.4-4.381,4.244,4.244,0,0,1,4.538-4.5,4.134,4.134,0,0,1,4.346,4.346" transform="translate(-395.052 -226.872)"/><path class="b" d="M523.923,233.7c0-1.06-.035-1.965-.07-2.712h2.225l.122,1.148h.052a2.947,2.947,0,0,1,2.573-1.339,2.41,2.41,0,0,1,2.33,1.443h.034a3.807,3.807,0,0,1,1.1-1.026,3.066,3.066,0,0,1,1.617-.417c1.634,0,2.868,1.148,2.868,3.686v5.007H534.2v-4.625c0-1.234-.4-1.947-1.252-1.947a1.292,1.292,0,0,0-1.217.921,2.2,2.2,0,0,0-.1.678v4.972h-2.573v-4.764c0-1.078-.382-1.808-1.217-1.808a1.345,1.345,0,0,0-1.234.956,1.753,1.753,0,0,0-.1.661v4.954h-2.573Z" transform="translate(-467.96 -226.872)"/></svg>