<svg xmlns="http://www.w3.org/2000/svg" width="250.855" height="59.6" viewBox="0 0 250.855 59.6"><defs><style>.a{fill:#3487ea;}.b{fill:#3cc64f;}.c{fill:#fff;}.d{fill:gray;}.e{fill:#373737;}</style></defs><g transform="translate(-7.2 -5.1)"><g transform="translate(7.2 5.1)"><path class="a" d="M113.631,20.335A15.233,15.233,0,0,0,98.4,5.1H76.446A15.2,15.2,0,0,0,61.7,16.706,26.319,26.319,0,0,1,95.772,50.443h2.651a15.233,15.233,0,0,0,15.235-15.235l9.444,5.456a1.547,1.547,0,0,0,2.316-1.338V16.217a1.547,1.547,0,0,0-2.316-1.338Z" transform="translate(-47.675 -5.1)"/><circle class="b" cx="23.392" cy="23.392" r="23.392" transform="translate(0 12.816)"/><path class="c" d="M51.833,164a2.548,2.548,0,0,0-2.445,3.165,12.863,12.863,0,0,0,24.936,0A2.523,2.523,0,0,0,71.88,164Z" transform="translate(-38.477 -123.109)"/></g><path class="d" d="M724.5,49.7h12.713v2.548h-9.65V60.1h8.9v2.522h-8.93V73.3H724.5Z" transform="translate(-532.71 -33.123)"/><path class="d" d="M788,44.8h3.088V69.659H788Z" transform="translate(-579.869 -29.484)"/><path class="d" d="M831.873,82.824c0,6.253-4.349,9.007-8.441,9.007-4.581,0-8.132-3.371-8.132-8.724,0-5.661,3.706-9.007,8.389-9.007C828.579,74.1,831.873,77.626,831.873,82.824Zm-13.433.154c0,3.706,2.136,6.511,5.147,6.511,2.934,0,5.147-2.754,5.147-6.588,0-2.882-1.441-6.511-5.07-6.511C820.009,76.416,818.44,79.761,818.44,82.978Z" transform="translate(-600.143 -51.244)"/><path class="d" d="M889.465,75.526l2.239,8.621c.489,1.9.952,3.654,1.261,5.378h.1c.386-1.724.952-3.526,1.518-5.353l2.754-8.647h2.6l2.625,8.466c.618,2.033,1.107,3.809,1.493,5.533h.1c.283-1.724.746-3.5,1.287-5.507l2.419-8.518h3.062l-5.456,16.933h-2.8l-2.6-8.055a55.05,55.05,0,0,1-1.493-5.559H898.5a49.459,49.459,0,0,1-1.544,5.61l-2.728,8.055h-2.8L886.3,75.551h3.165Z" transform="translate(-652.872 -52.283)"/><path class="e" d="M402.6,45.512c1-.1,1.956-.206,2.856-.283.875-.077,1.879-.129,2.959-.129a20.4,20.4,0,0,1,3.757.335,10.211,10.211,0,0,1,3.345,1.235,6.875,6.875,0,0,1,2.393,2.393,7.137,7.137,0,0,1,.926,3.809,8.771,8.771,0,0,1-.335,2.445,7.325,7.325,0,0,1-2.033,3.217,7.119,7.119,0,0,1-1.184.926l-.592.386,6.048,10.5c-.463.051-.952.1-1.441.129q-.772.077-1.544.077a17.413,17.413,0,0,1-2.6-.206l-6.485-11.529.823-.412c.309-.154.721-.36,1.184-.618a7.526,7.526,0,0,0,1.338-.952,4.808,4.808,0,0,0,1.081-1.39,3.822,3.822,0,0,0,.437-1.93,3.9,3.9,0,0,0-1.235-3.191,4.968,4.968,0,0,0-3.217-1.029,7.646,7.646,0,0,0-1.39.1V70.371c-.412.051-.823.077-1.235.129a9.713,9.713,0,0,1-1.21.051c-.386,0-.8,0-1.235-.026s-.875-.077-1.338-.129V45.512Z" transform="translate(-293.648 -29.706)"/><path class="e" d="M487.457,51.749a2.642,2.642,0,0,1-2.831,2.625,2.644,2.644,0,1,1,2.831-2.625Zm-5.43,21.565V56.433h5.25V73.314Z" transform="translate(-352.539 -32.676)"/><path class="e" d="M532.587,76.56c-.077,1.081-.129,2.5-.129,5.018V91c0,3.242-.669,5.919-2.548,7.592a10.348,10.348,0,0,1-6.871,2.084,12.987,12.987,0,0,1-6.073-1.312L518,95.4a10.465,10.465,0,0,0,4.915,1.287c2.5,0,4.375-1.338,4.375-4.452V91.126h-.077a5.4,5.4,0,0,1-4.555,2.213c-4.169,0-7.154-3.4-7.154-8.261,0-5.43,3.526-8.878,7.669-8.878a5.1,5.1,0,0,1,4.632,2.393h.077l.18-2.007h4.529Zm-5.378,6.871a3.936,3.936,0,0,0-.1-.978,2.884,2.884,0,0,0-2.831-2.316c-1.9,0-3.448,1.724-3.448,4.812,0,2.522,1.235,4.478,3.448,4.478a2.842,2.842,0,0,0,2.754-2.136,4.778,4.778,0,0,0,.18-1.39Z" transform="translate(-377.494 -52.803)"/><path class="e" d="M597.7,47.9h5.25v9.625h.077a6.171,6.171,0,0,1,4.812-2.393c3.345,0,5.919,2.316,5.919,7.386V72.4h-5.25v-9.29c0-2.213-.772-3.731-2.728-3.731a2.8,2.8,0,0,0-2.625,1.827,3.566,3.566,0,0,0-.18,1.184V72.4h-5.25V47.9Z" transform="translate(-438.54 -31.786)"/><path class="e" d="M677.086,58.8v4.838h3.757V67.5h-3.757v6.125c0,2.033.489,2.959,2.084,2.959a10.52,10.52,0,0,0,1.544-.129l.026,3.963a10.186,10.186,0,0,1-3.423.437,5.5,5.5,0,0,1-3.937-1.441c-.978-1-1.441-2.625-1.441-5.018V67.5H669.7v-3.86h2.239V59.984Z" transform="translate(-492.012 -39.881)"/></g></svg>