<svg xmlns="http://www.w3.org/2000/svg" width="77.743" height="59.6" viewBox="0 0 77.743 59.6"><defs><style>.a{fill:#3487ea;}.b{fill:#3cc64f;}.c{fill:#fff;}</style></defs><g transform="translate(-7.2 -5.1)"><g transform="translate(7.2 5.1)"><path class="a" d="M113.631,20.335A15.233,15.233,0,0,0,98.4,5.1H76.446A15.2,15.2,0,0,0,61.7,16.706,26.319,26.319,0,0,1,95.772,50.443h2.651a15.233,15.233,0,0,0,15.235-15.235l9.444,5.456a1.547,1.547,0,0,0,2.316-1.338V16.217a1.547,1.547,0,0,0-2.316-1.338Z" transform="translate(-47.675 -5.1)"/><circle class="b" cx="23.392" cy="23.392" r="23.392" transform="translate(0 12.816)"/><path class="c" d="M51.833,164a2.548,2.548,0,0,0-2.445,3.165,12.863,12.863,0,0,0,24.936,0A2.523,2.523,0,0,0,71.88,164Z" transform="translate(-38.477 -123.109)"/></g></g></svg>